<svg width="40" height="7" viewBox="0 0 40 7" fill="none" xmlns="http://www.w3.org/2000/svg">
<path d="M6.31681 3.56227C6.33542 3.93815 6.27735 4.31388 6.14612 4.6666C6.01488 5.01932 5.81324 5.34163 5.55346 5.61393C5.26233 5.91587 4.91073 6.15294 4.52167 6.30963C4.13261 6.46633 3.71485 6.53912 3.29571 6.52324C2.87391 6.52702 2.4556 6.44644 2.06538 6.28624C1.67516 6.12604 1.32091 5.88945 1.02343 5.59038C0.725957 5.29131 0.49127 4.9358 0.333158 4.54473C0.175046 4.15366 0.0967021 3.73493 0.102733 3.31315C0.0967496 2.89136 0.175121 2.47263 0.333244 2.08155C0.491366 1.69048 0.726047 1.33495 1.02351 1.03585C1.32096 0.736748 1.6752 0.500111 2.0654 0.339839C2.4556 0.179567 2.8739 0.0988919 3.29571 0.102554C3.7294 0.101243 4.15874 0.188925 4.55719 0.360176C4.92725 0.510182 5.25664 0.745477 5.51854 1.0469L4.9783 1.58754C4.77243 1.34524 4.51364 1.15347 4.22191 1.02703C3.93018 0.900592 3.61329 0.842869 3.29571 0.858314C2.97603 0.856661 2.65931 0.919542 2.36451 1.04319C2.06971 1.16684 1.80289 1.34872 1.58005 1.57792C1.3572 1.80713 1.18291 2.07895 1.0676 2.37712C0.952292 2.67528 0.898344 2.99365 0.908991 3.31315C0.901369 3.79172 1.03603 4.26178 1.29591 4.66371C1.55579 5.06565 1.92917 5.38136 2.36871 5.57081C2.80825 5.76026 3.29414 5.81492 3.76479 5.72786C4.23543 5.6408 4.66963 5.41593 5.01231 5.08178C5.32769 4.74194 5.5105 4.30012 5.52745 3.8368H3.29571V3.09855H6.27378C6.30194 3.25153 6.31634 3.40673 6.31681 3.56227Z" fill="white"/>
<path d="M11.0383 0.995371H8.2394V2.94398H10.7633V3.68233H8.2394V5.63093H11.0383V6.38618H7.45014V0.240123H11.0383V0.995371Z" fill="white"/>
<path d="M14.3685 6.38618H13.5782V0.995371H11.8616V0.240123H16.085V0.995371H14.3685V6.38618Z" fill="white"/>
<path d="M19.1411 6.38618V0.240123H19.9303V6.38618H19.1411Z" fill="white"/>
<path d="M23.4335 6.38618H22.6432V0.995371H20.9267V0.240123H25.1501V0.995371H23.4335V6.38618Z" fill="white"/>
<path d="M33.1453 5.59191C32.5471 6.18833 31.7368 6.52324 30.892 6.52324C30.0473 6.52324 29.237 6.18833 28.6388 5.59191C28.3428 5.29215 28.1102 4.93596 27.9547 4.54449C27.7991 4.15302 27.7239 3.73427 27.7335 3.31315C27.7239 2.89203 27.7991 2.47329 27.9547 2.08182C28.1102 1.69035 28.3428 1.33415 28.6388 1.0344C28.9345 0.738637 29.2856 0.504094 29.672 0.344196C30.0585 0.184298 30.4727 0.102184 30.8909 0.102555C31.3091 0.102926 31.7231 0.185775 32.1093 0.346358C32.4954 0.506942 32.8461 0.742107 33.1413 1.03839C33.4374 1.33736 33.6705 1.69276 33.8267 2.08351C33.9829 2.47427 34.0591 2.89242 34.0506 3.31315C34.0599 3.73424 33.9845 4.15291 33.829 4.54434C33.6735 4.93577 33.441 5.292 33.1453 5.59191ZM29.2219 5.07728C29.665 5.51958 30.2655 5.768 30.8915 5.768C31.5176 5.768 32.118 5.51958 32.5611 5.07728C32.7883 4.84467 32.966 4.56841 33.0834 4.2652C33.2008 3.96199 33.2556 3.63812 33.2443 3.31315C33.2556 2.98819 33.2008 2.66432 33.0834 2.36111C32.966 2.05789 32.7883 1.78164 32.5611 1.54903C32.118 1.10672 31.5176 0.858303 30.8915 0.858303C30.2655 0.858303 29.665 1.10672 29.2219 1.54903C28.9951 1.78182 28.8177 2.05813 28.7004 2.36132C28.5832 2.6645 28.5285 2.98828 28.5397 3.31315C28.5285 3.63802 28.5832 3.9618 28.7004 4.26499C28.8177 4.56817 28.9951 4.84448 29.2219 5.07728Z" fill="white"/>
<path d="M35.1589 6.38618V0.240123H36.1203L39.1073 5.02124H39.1413L39.1073 3.8368V0.240123H39.8975V6.38618H39.0733L35.9482 1.37346H35.9142L35.9482 2.5579V6.38618H35.1589Z" fill="white"/>
<path d="M6.31681 3.56227C6.33542 3.93815 6.27735 4.31388 6.14612 4.6666C6.01488 5.01932 5.81324 5.34163 5.55346 5.61393C5.26233 5.91587 4.91073 6.15294 4.52167 6.30963C4.13261 6.46633 3.71485 6.53912 3.29571 6.52324C2.87391 6.52702 2.4556 6.44644 2.06538 6.28624C1.67516 6.12604 1.32091 5.88945 1.02343 5.59038C0.725957 5.29131 0.49127 4.9358 0.333158 4.54473C0.175046 4.15366 0.0967021 3.73493 0.102733 3.31315C0.0967496 2.89136 0.175121 2.47263 0.333244 2.08155C0.491366 1.69048 0.726047 1.33495 1.02351 1.03585C1.32096 0.736748 1.6752 0.500111 2.0654 0.339839C2.4556 0.179567 2.8739 0.0988919 3.29571 0.102554C3.7294 0.101243 4.15874 0.188925 4.55719 0.360176C4.92725 0.510182 5.25664 0.745477 5.51854 1.0469L4.9783 1.58754C4.77243 1.34524 4.51364 1.15347 4.22191 1.02703C3.93018 0.900592 3.61329 0.842869 3.29571 0.858314C2.97603 0.856661 2.65931 0.919542 2.36451 1.04319C2.06971 1.16684 1.80289 1.34872 1.58005 1.57792C1.3572 1.80713 1.18291 2.07895 1.0676 2.37712C0.952292 2.67528 0.898344 2.99365 0.908991 3.31315C0.901369 3.79172 1.03603 4.26178 1.29591 4.66371C1.55579 5.06565 1.92917 5.38136 2.36871 5.57081C2.80825 5.76026 3.29414 5.81492 3.76479 5.72786C4.23543 5.6408 4.66963 5.41593 5.01231 5.08178C5.32769 4.74194 5.5105 4.30012 5.52745 3.8368H3.29571V3.09855H6.27378C6.30194 3.25153 6.31634 3.40673 6.31681 3.56227Z" stroke="white" stroke-width="0.2" stroke-miterlimit="10"/>
<path d="M11.0383 0.995371H8.2394V2.94398H10.7633V3.68233H8.2394V5.63093H11.0383V6.38618H7.45014V0.240123H11.0383V0.995371Z" stroke="white" stroke-width="0.2" stroke-miterlimit="10"/>
<path d="M14.3685 6.38618H13.5782V0.995371H11.8616V0.240123H16.085V0.995371H14.3685V6.38618Z" stroke="white" stroke-width="0.2" stroke-miterlimit="10"/>
<path d="M19.1411 6.38618V0.240123H19.9303V6.38618H19.1411Z" stroke="white" stroke-width="0.2" stroke-miterlimit="10"/>
<path d="M23.4335 6.38618H22.6432V0.995371H20.9267V0.240123H25.1501V0.995371H23.4335V6.38618Z" stroke="white" stroke-width="0.2" stroke-miterlimit="10"/>
<path d="M33.1453 5.59191C32.5471 6.18833 31.7368 6.52324 30.892 6.52324C30.0473 6.52324 29.237 6.18833 28.6388 5.59191C28.3428 5.29215 28.1102 4.93596 27.9547 4.54449C27.7991 4.15302 27.7239 3.73427 27.7335 3.31315C27.7239 2.89203 27.7991 2.47329 27.9547 2.08182C28.1102 1.69035 28.3428 1.33415 28.6388 1.0344C28.9345 0.738637 29.2856 0.504094 29.672 0.344196C30.0585 0.184298 30.4727 0.102184 30.8909 0.102555C31.3091 0.102926 31.7231 0.185775 32.1093 0.346358C32.4954 0.506942 32.8461 0.742107 33.1413 1.03839C33.4374 1.33736 33.6705 1.69276 33.8267 2.08351C33.9829 2.47427 34.0591 2.89242 34.0506 3.31315C34.0599 3.73424 33.9845 4.15291 33.829 4.54434C33.6735 4.93577 33.441 5.292 33.1453 5.59191ZM29.2219 5.07728C29.665 5.51958 30.2655 5.768 30.8915 5.768C31.5176 5.768 32.118 5.51958 32.5611 5.07728C32.7883 4.84467 32.966 4.56841 33.0834 4.2652C33.2008 3.96199 33.2556 3.63812 33.2443 3.31315C33.2556 2.98819 33.2008 2.66432 33.0834 2.36111C32.966 2.05789 32.7883 1.78164 32.5611 1.54903C32.118 1.10672 31.5176 0.858303 30.8915 0.858303C30.2655 0.858303 29.665 1.10672 29.2219 1.54903C28.9951 1.78182 28.8177 2.05813 28.7004 2.36132C28.5832 2.6645 28.5285 2.98828 28.5397 3.31315C28.5285 3.63802 28.5832 3.9618 28.7004 4.26499C28.8177 4.56817 28.9951 4.84448 29.2219 5.07728Z" stroke="white" stroke-width="0.2" stroke-miterlimit="10"/>
<path d="M35.1589 6.38618V0.240123H36.1203L39.1073 5.02124H39.1413L39.1073 3.8368V0.240123H39.8975V6.38618H39.0733L35.9482 1.37346H35.9142L35.9482 2.5579V6.38618H35.1589Z" stroke="white" stroke-width="0.2" stroke-miterlimit="10"/>
</svg>
